<mxfile host="Electron" modified="2023-12-03T12:14:53.066Z" agent="Mozilla/5.0 (Macintosh; Intel Mac OS X 10_15_7) AppleWebKit/537.36 (KHTML, like Gecko) draw.io/22.1.2 Chrome/114.0.5735.289 Electron/25.9.4 Safari/537.36" etag="9t3FojJTjci-CbFZAvvn" version="22.1.2" type="device">
  <diagram name="Page-1" id="uzkYt8T5e0o2PKVjVLO4">
    <mxGraphModel dx="2765" dy="2563" grid="1" gridSize="10" guides="1" tooltips="1" connect="1" arrows="1" fold="1" page="1" pageScale="1" pageWidth="850" pageHeight="1100" math="0" shadow="0">
      <root>
        <mxCell id="0" />
        <mxCell id="1" parent="0" />
        <mxCell id="4YayEk9W3RWL9oU9dBPd-1" value="" style="rounded=1;whiteSpace=wrap;html=1;" vertex="1" parent="1">
          <mxGeometry x="30" y="50" width="1580" height="950" as="geometry" />
        </mxCell>
        <mxCell id="4YayEk9W3RWL9oU9dBPd-2" value="RDV - слой сырых данных" style="rounded=1;whiteSpace=wrap;html=1;" vertex="1" parent="1">
          <mxGeometry x="380" y="350" width="190" height="210" as="geometry" />
        </mxCell>
        <mxCell id="4YayEk9W3RWL9oU9dBPd-3" value="IDL - технический слой детальных данных" style="rounded=1;whiteSpace=wrap;html=1;" vertex="1" parent="1">
          <mxGeometry x="720" y="350" width="190" height="210" as="geometry" />
        </mxCell>
        <mxCell id="4YayEk9W3RWL9oU9dBPd-4" value="&amp;nbsp;BDM - слой детальных данных" style="rounded=1;whiteSpace=wrap;html=1;" vertex="1" parent="1">
          <mxGeometry x="1040" y="350" width="190" height="210" as="geometry" />
        </mxCell>
        <mxCell id="4YayEk9W3RWL9oU9dBPd-5" value="Источник&lt;br&gt;MDMP" style="rounded=0;whiteSpace=wrap;html=1;" vertex="1" parent="1">
          <mxGeometry x="60" y="220" width="190" height="100" as="geometry" />
        </mxCell>
        <mxCell id="4YayEk9W3RWL9oU9dBPd-7" value="Источник" style="rounded=0;whiteSpace=wrap;html=1;" vertex="1" parent="1">
          <mxGeometry x="60" y="405" width="190" height="100" as="geometry" />
        </mxCell>
        <mxCell id="4YayEk9W3RWL9oU9dBPd-8" value="Источник" style="rounded=0;whiteSpace=wrap;html=1;" vertex="1" parent="1">
          <mxGeometry x="60" y="600" width="190" height="100" as="geometry" />
        </mxCell>
        <mxCell id="4YayEk9W3RWL9oU9dBPd-9" value="Витрина" style="rounded=0;whiteSpace=wrap;html=1;" vertex="1" parent="1">
          <mxGeometry x="1340" y="200" width="190" height="100" as="geometry" />
        </mxCell>
        <mxCell id="4YayEk9W3RWL9oU9dBPd-10" value="Витрина" style="rounded=0;whiteSpace=wrap;html=1;" vertex="1" parent="1">
          <mxGeometry x="1340" y="415" width="190" height="100" as="geometry" />
        </mxCell>
        <mxCell id="4YayEk9W3RWL9oU9dBPd-11" value="Витрина" style="rounded=0;whiteSpace=wrap;html=1;" vertex="1" parent="1">
          <mxGeometry x="1340" y="640" width="190" height="100" as="geometry" />
        </mxCell>
        <mxCell id="4YayEk9W3RWL9oU9dBPd-12" value="PowerBi / Tableau" style="rounded=1;whiteSpace=wrap;html=1;" vertex="1" parent="1">
          <mxGeometry x="1680" y="190" width="300" height="120" as="geometry" />
        </mxCell>
        <mxCell id="4YayEk9W3RWL9oU9dBPd-13" value="adHoc" style="rounded=1;whiteSpace=wrap;html=1;" vertex="1" parent="1">
          <mxGeometry x="1680" y="410" width="300" height="120" as="geometry" />
        </mxCell>
        <mxCell id="4YayEk9W3RWL9oU9dBPd-14" value="Кубы" style="rounded=1;whiteSpace=wrap;html=1;" vertex="1" parent="1">
          <mxGeometry x="1680" y="630" width="300" height="120" as="geometry" />
        </mxCell>
        <mxCell id="4YayEk9W3RWL9oU9dBPd-16" value="&lt;font style=&quot;font-size: 18px;&quot;&gt;ЦЕХ - целевое единое хранилище данных&lt;/font&gt;" style="text;html=1;strokeColor=none;fillColor=none;align=center;verticalAlign=middle;whiteSpace=wrap;rounded=0;" vertex="1" parent="1">
          <mxGeometry x="620" y="10" width="480" height="30" as="geometry" />
        </mxCell>
        <mxCell id="4YayEk9W3RWL9oU9dBPd-17" value="" style="endArrow=classic;html=1;rounded=0;exitX=1;exitY=0.5;exitDx=0;exitDy=0;entryX=-0.009;entryY=0.358;entryDx=0;entryDy=0;entryPerimeter=0;" edge="1" parent="1" source="4YayEk9W3RWL9oU9dBPd-5" target="4YayEk9W3RWL9oU9dBPd-2">
          <mxGeometry width="50" height="50" relative="1" as="geometry">
            <mxPoint x="790" y="340" as="sourcePoint" />
            <mxPoint x="840" y="290" as="targetPoint" />
          </mxGeometry>
        </mxCell>
        <mxCell id="4YayEk9W3RWL9oU9dBPd-18" value="" style="endArrow=classic;html=1;rounded=0;exitX=1;exitY=0.5;exitDx=0;exitDy=0;entryX=0;entryY=0.5;entryDx=0;entryDy=0;" edge="1" parent="1" source="4YayEk9W3RWL9oU9dBPd-7" target="4YayEk9W3RWL9oU9dBPd-2">
          <mxGeometry width="50" height="50" relative="1" as="geometry">
            <mxPoint x="790" y="340" as="sourcePoint" />
            <mxPoint x="840" y="290" as="targetPoint" />
          </mxGeometry>
        </mxCell>
        <mxCell id="4YayEk9W3RWL9oU9dBPd-19" value="" style="endArrow=classic;html=1;rounded=0;exitX=1;exitY=0.5;exitDx=0;exitDy=0;entryX=-0.002;entryY=0.698;entryDx=0;entryDy=0;entryPerimeter=0;" edge="1" parent="1" source="4YayEk9W3RWL9oU9dBPd-8" target="4YayEk9W3RWL9oU9dBPd-2">
          <mxGeometry width="50" height="50" relative="1" as="geometry">
            <mxPoint x="580" y="480" as="sourcePoint" />
            <mxPoint x="630" y="430" as="targetPoint" />
          </mxGeometry>
        </mxCell>
        <mxCell id="4YayEk9W3RWL9oU9dBPd-20" value="" style="endArrow=classic;html=1;rounded=0;exitX=1;exitY=0.5;exitDx=0;exitDy=0;entryX=0;entryY=0.5;entryDx=0;entryDy=0;" edge="1" parent="1" source="4YayEk9W3RWL9oU9dBPd-2" target="4YayEk9W3RWL9oU9dBPd-3">
          <mxGeometry width="50" height="50" relative="1" as="geometry">
            <mxPoint x="600" y="420" as="sourcePoint" />
            <mxPoint x="650" y="370" as="targetPoint" />
          </mxGeometry>
        </mxCell>
        <mxCell id="4YayEk9W3RWL9oU9dBPd-21" value="" style="endArrow=classic;html=1;rounded=0;entryX=0;entryY=0.5;entryDx=0;entryDy=0;" edge="1" parent="1" source="4YayEk9W3RWL9oU9dBPd-3" target="4YayEk9W3RWL9oU9dBPd-4">
          <mxGeometry width="50" height="50" relative="1" as="geometry">
            <mxPoint x="820" y="420" as="sourcePoint" />
            <mxPoint x="870" y="370" as="targetPoint" />
          </mxGeometry>
        </mxCell>
        <mxCell id="4YayEk9W3RWL9oU9dBPd-22" value="" style="endArrow=classic;html=1;rounded=0;entryX=0.012;entryY=0.615;entryDx=0;entryDy=0;entryPerimeter=0;" edge="1" parent="1" target="4YayEk9W3RWL9oU9dBPd-9">
          <mxGeometry width="50" height="50" relative="1" as="geometry">
            <mxPoint x="1230" y="405" as="sourcePoint" />
            <mxPoint x="1280" y="355" as="targetPoint" />
          </mxGeometry>
        </mxCell>
        <mxCell id="4YayEk9W3RWL9oU9dBPd-25" value="" style="endArrow=classic;html=1;rounded=0;entryX=0.002;entryY=0.41;entryDx=0;entryDy=0;entryPerimeter=0;" edge="1" parent="1" target="4YayEk9W3RWL9oU9dBPd-10">
          <mxGeometry width="50" height="50" relative="1" as="geometry">
            <mxPoint x="1230" y="455" as="sourcePoint" />
            <mxPoint x="1280" y="405" as="targetPoint" />
          </mxGeometry>
        </mxCell>
        <mxCell id="4YayEk9W3RWL9oU9dBPd-26" value="" style="endArrow=classic;html=1;rounded=0;entryX=0;entryY=0.5;entryDx=0;entryDy=0;exitX=1.002;exitY=0.726;exitDx=0;exitDy=0;exitPerimeter=0;" edge="1" parent="1" source="4YayEk9W3RWL9oU9dBPd-4" target="4YayEk9W3RWL9oU9dBPd-11">
          <mxGeometry width="50" height="50" relative="1" as="geometry">
            <mxPoint x="1180" y="620" as="sourcePoint" />
            <mxPoint x="1230" y="570" as="targetPoint" />
          </mxGeometry>
        </mxCell>
        <mxCell id="4YayEk9W3RWL9oU9dBPd-27" value="" style="endArrow=classic;html=1;rounded=0;exitX=1;exitY=0.5;exitDx=0;exitDy=0;entryX=0;entryY=0.5;entryDx=0;entryDy=0;" edge="1" parent="1" source="4YayEk9W3RWL9oU9dBPd-9" target="4YayEk9W3RWL9oU9dBPd-12">
          <mxGeometry width="50" height="50" relative="1" as="geometry">
            <mxPoint x="1790" y="630" as="sourcePoint" />
            <mxPoint x="1840" y="580" as="targetPoint" />
          </mxGeometry>
        </mxCell>
        <mxCell id="4YayEk9W3RWL9oU9dBPd-28" value="" style="endArrow=classic;html=1;rounded=0;exitX=1;exitY=0.5;exitDx=0;exitDy=0;entryX=0;entryY=0.5;entryDx=0;entryDy=0;" edge="1" parent="1">
          <mxGeometry width="50" height="50" relative="1" as="geometry">
            <mxPoint x="1530" y="464.58000000000004" as="sourcePoint" />
            <mxPoint x="1680" y="464.58000000000004" as="targetPoint" />
          </mxGeometry>
        </mxCell>
        <mxCell id="4YayEk9W3RWL9oU9dBPd-29" value="" style="endArrow=classic;html=1;rounded=0;exitX=1;exitY=0.5;exitDx=0;exitDy=0;entryX=0;entryY=0.5;entryDx=0;entryDy=0;" edge="1" parent="1">
          <mxGeometry width="50" height="50" relative="1" as="geometry">
            <mxPoint x="1530" y="689.58" as="sourcePoint" />
            <mxPoint x="1680" y="689.58" as="targetPoint" />
          </mxGeometry>
        </mxCell>
        <object placeholders="1" c4Name="USER" c4Type="USER" c4Description="USER" label="&lt;font style=&quot;font-size: 16px&quot;&gt;&lt;b&gt;%c4Name%&lt;/b&gt;&lt;/font&gt;&lt;div&gt;[%c4Type%]&lt;/div&gt;&lt;br&gt;&lt;div&gt;&lt;font style=&quot;font-size: 11px&quot;&gt;&lt;font color=&quot;#cccccc&quot;&gt;%c4Description%&lt;/font&gt;&lt;/div&gt;" id="4YayEk9W3RWL9oU9dBPd-30">
          <mxCell style="html=1;fontSize=11;dashed=0;whiteSpace=wrap;fillColor=#083F75;strokeColor=#06315C;fontColor=#ffffff;shape=mxgraph.c4.person2;align=center;metaEdit=1;points=[[0.5,0,0],[1,0.5,0],[1,0.75,0],[0.75,1,0],[0.5,1,0],[0.25,1,0],[0,0.75,0],[0,0.5,0]];resizable=0;" vertex="1" parent="1">
            <mxGeometry x="1340" y="-240" width="200" height="180" as="geometry" />
          </mxCell>
        </object>
        <object placeholders="1" c4Type="Relationship" id="4YayEk9W3RWL9oU9dBPd-31">
          <mxCell style="endArrow=blockThin;html=1;fontSize=10;fontColor=#404040;strokeWidth=1;endFill=1;strokeColor=#828282;elbow=vertical;metaEdit=1;endSize=14;startSize=14;jumpStyle=arc;jumpSize=16;rounded=0;edgeStyle=orthogonalEdgeStyle;exitX=-0.008;exitY=0.684;exitDx=0;exitDy=0;exitPerimeter=0;entryX=0.797;entryY=-0.008;entryDx=0;entryDy=0;dashed=1;entryPerimeter=0;" edge="1" parent="1" source="4YayEk9W3RWL9oU9dBPd-30" target="4YayEk9W3RWL9oU9dBPd-4">
            <mxGeometry width="240" relative="1" as="geometry">
              <mxPoint x="1310" y="-50" as="sourcePoint" />
              <mxPoint x="1200" y="260" as="targetPoint" />
              <Array as="points">
                <mxPoint x="1338" y="-78" />
                <mxPoint x="1191" y="-78" />
                <mxPoint x="1191" y="348" />
              </Array>
            </mxGeometry>
          </mxCell>
        </object>
        <mxCell id="4YayEk9W3RWL9oU9dBPd-33" value="Доступ" style="edgeLabel;html=1;align=center;verticalAlign=middle;resizable=0;points=[];fontSize=14;" vertex="1" connectable="0" parent="4YayEk9W3RWL9oU9dBPd-31">
          <mxGeometry x="0.1113" y="-1" relative="1" as="geometry">
            <mxPoint as="offset" />
          </mxGeometry>
        </mxCell>
        <object placeholders="1" c4Name="Витрины" c4Type="ContainerScopeBoundary" c4Application="Витрины" label="&lt;font style=&quot;font-size: 16px&quot;&gt;&lt;b&gt;&lt;div style=&quot;text-align: left&quot;&gt;%c4Name%&lt;/div&gt;&lt;/b&gt;&lt;/font&gt;&lt;div style=&quot;text-align: left&quot;&gt;[%c4Application%]&lt;/div&gt;" id="4YayEk9W3RWL9oU9dBPd-36">
          <mxCell style="rounded=1;fontSize=11;whiteSpace=wrap;html=1;dashed=1;arcSize=20;fillColor=none;strokeColor=#666666;fontColor=#333333;labelBackgroundColor=none;align=left;verticalAlign=bottom;labelBorderColor=none;spacingTop=0;spacing=10;dashPattern=8 4;metaEdit=1;rotatable=0;perimeter=rectanglePerimeter;noLabel=0;labelPadding=0;allowArrows=0;connectable=0;expand=0;recursiveResize=0;editable=1;pointerEvents=0;absoluteArcSize=1;points=[[0.25,0,0],[0.5,0,0],[0.75,0,0],[1,0.25,0],[1,0.5,0],[1,0.75,0],[0.75,1,0],[0.5,1,0],[0.25,1,0],[0,0.75,0],[0,0.5,0],[0,0.25,0]];" vertex="1" parent="1">
            <mxGeometry x="1300" y="140" width="270" height="660" as="geometry" />
          </mxCell>
        </object>
        <object placeholders="1" c4Type="Relationship" id="4YayEk9W3RWL9oU9dBPd-38">
          <mxCell style="endArrow=blockThin;html=1;fontSize=10;fontColor=#404040;strokeWidth=1;endFill=1;strokeColor=#828282;elbow=vertical;metaEdit=1;endSize=14;startSize=14;jumpStyle=arc;jumpSize=16;rounded=0;edgeStyle=orthogonalEdgeStyle;exitX=0.999;exitY=0.692;exitDx=0;exitDy=0;exitPerimeter=0;dashed=1;" edge="1" parent="1" source="4YayEk9W3RWL9oU9dBPd-30">
            <mxGeometry width="240" relative="1" as="geometry">
              <mxPoint x="950" y="600" as="sourcePoint" />
              <mxPoint x="1811" y="140" as="targetPoint" />
            </mxGeometry>
          </mxCell>
        </object>
        <object placeholders="1" c4Name="Внешние системы" c4Type="ContainerScopeBoundary" c4Application="Внешние системы" label="&lt;font style=&quot;font-size: 16px&quot;&gt;&lt;b&gt;&lt;div style=&quot;text-align: left&quot;&gt;%c4Name%&lt;/div&gt;&lt;/b&gt;&lt;/font&gt;&lt;div style=&quot;text-align: left&quot;&gt;[%c4Application%]&lt;/div&gt;" id="4YayEk9W3RWL9oU9dBPd-39">
          <mxCell style="rounded=1;fontSize=11;whiteSpace=wrap;html=1;dashed=1;arcSize=20;fillColor=none;strokeColor=#666666;fontColor=#333333;labelBackgroundColor=none;align=left;verticalAlign=bottom;labelBorderColor=none;spacingTop=0;spacing=10;dashPattern=8 4;metaEdit=1;rotatable=0;perimeter=rectanglePerimeter;noLabel=0;labelPadding=0;allowArrows=0;connectable=0;expand=0;recursiveResize=0;editable=1;pointerEvents=0;absoluteArcSize=1;points=[[0.25,0,0],[0.5,0,0],[0.75,0,0],[1,0.25,0],[1,0.5,0],[1,0.75,0],[0.75,1,0],[0.5,1,0],[0.25,1,0],[0,0.75,0],[0,0.5,0],[0,0.25,0]];" vertex="1" parent="1">
            <mxGeometry x="1660" y="140" width="350" height="660" as="geometry" />
          </mxCell>
        </object>
        <mxCell id="4YayEk9W3RWL9oU9dBPd-40" value="Доступ" style="edgeLabel;html=1;align=center;verticalAlign=middle;resizable=0;points=[];fontSize=14;" vertex="1" connectable="0" parent="1">
          <mxGeometry x="1809.9980136990268" y="29.997602670339717" as="geometry" />
        </mxCell>
        <object placeholders="1" c4Type="Relationship" id="4YayEk9W3RWL9oU9dBPd-42">
          <mxCell style="endArrow=blockThin;html=1;fontSize=10;fontColor=#404040;strokeWidth=1;endFill=1;strokeColor=#828282;elbow=vertical;metaEdit=1;endSize=14;startSize=14;jumpStyle=arc;jumpSize=16;rounded=0;edgeStyle=orthogonalEdgeStyle;exitX=0.5;exitY=1;exitDx=0;exitDy=0;exitPerimeter=0;dashed=1;" edge="1" parent="1" source="4YayEk9W3RWL9oU9dBPd-30">
            <mxGeometry width="240" relative="1" as="geometry">
              <mxPoint x="1230" y="130" as="sourcePoint" />
              <mxPoint x="1440" y="140" as="targetPoint" />
            </mxGeometry>
          </mxCell>
        </object>
        <mxCell id="4YayEk9W3RWL9oU9dBPd-43" value="Доступ" style="edgeLabel;html=1;align=center;verticalAlign=middle;resizable=0;points=[];fontSize=14;" vertex="1" connectable="0" parent="1">
          <mxGeometry x="1434.9957568841003" y="-0.0008390507822539917" as="geometry">
            <mxPoint x="14" y="30" as="offset" />
          </mxGeometry>
        </mxCell>
        <mxCell id="4YayEk9W3RWL9oU9dBPd-48" value="MDMP-RDV_v13.4" style="shape=mxgraph.bpmn.data;labelPosition=center;verticalLabelPosition=bottom;align=center;verticalAlign=top;size=15;html=1;" vertex="1" parent="1">
          <mxGeometry x="330" y="240" width="40" height="60" as="geometry" />
        </mxCell>
        <mxCell id="4YayEk9W3RWL9oU9dBPd-50" value="То, что уже грузится с MDMP на RDV" style="text;html=1;strokeColor=none;fillColor=none;align=center;verticalAlign=middle;whiteSpace=wrap;rounded=0;" vertex="1" parent="1">
          <mxGeometry x="270" y="200" width="160" height="50" as="geometry" />
        </mxCell>
        <mxCell id="4YayEk9W3RWL9oU9dBPd-51" value="RDV-IDL_counterparty_individual_v9" style="shape=mxgraph.bpmn.data;labelPosition=center;verticalLabelPosition=bottom;align=center;verticalAlign=top;size=15;html=1;" vertex="1" parent="1">
          <mxGeometry x="580" y="610" width="40" height="60" as="geometry" />
        </mxCell>
        <mxCell id="4YayEk9W3RWL9oU9dBPd-54" value="RDV-IDL.bbridge_counterparty v6.2" style="shape=mxgraph.bpmn.data;labelPosition=center;verticalLabelPosition=bottom;align=center;verticalAlign=top;size=15;html=1;" vertex="1" parent="1">
          <mxGeometry x="580" y="710" width="40" height="60" as="geometry" />
        </mxCell>
        <mxCell id="4YayEk9W3RWL9oU9dBPd-55" value="RVD-IDL_bbridge_counterparty_contact_v8" style="shape=mxgraph.bpmn.data;labelPosition=center;verticalLabelPosition=bottom;align=center;verticalAlign=top;size=15;html=1;" vertex="1" parent="1">
          <mxGeometry x="580" y="800" width="40" height="60" as="geometry" />
        </mxCell>
        <object placeholders="1" c4Name="RDV -&gt; IDL" c4Type="ContainerScopeBoundary" c4Application="RDV -&gt; IDL" label="&lt;font style=&quot;font-size: 16px&quot;&gt;&lt;b&gt;&lt;div style=&quot;text-align: left&quot;&gt;%c4Name%&lt;/div&gt;&lt;/b&gt;&lt;/font&gt;&lt;div style=&quot;text-align: left&quot;&gt;[%c4Application%]&lt;/div&gt;" id="4YayEk9W3RWL9oU9dBPd-58">
          <mxCell style="rounded=1;fontSize=11;whiteSpace=wrap;html=1;dashed=1;arcSize=20;fillColor=none;strokeColor=#666666;fontColor=#333333;labelBackgroundColor=none;align=left;verticalAlign=bottom;labelBorderColor=none;spacingTop=0;spacing=10;dashPattern=8 4;metaEdit=1;rotatable=0;perimeter=rectanglePerimeter;noLabel=0;labelPadding=0;allowArrows=0;connectable=0;expand=0;recursiveResize=0;editable=1;pointerEvents=0;absoluteArcSize=1;points=[[0.25,0,0],[0.5,0,0],[0.75,0,0],[1,0.25,0],[1,0.5,0],[1,0.75,0],[0.75,1,0],[0.5,1,0],[0.25,1,0],[0,0.75,0],[0,0.5,0],[0,0.25,0]];" vertex="1" parent="1">
            <mxGeometry x="470" y="590" width="260" height="350" as="geometry" />
          </mxCell>
        </object>
        <mxCell id="4YayEk9W3RWL9oU9dBPd-59" value="" style="endArrow=none;dashed=1;html=1;dashPattern=1 3;strokeWidth=2;rounded=0;" edge="1" parent="1">
          <mxGeometry width="50" height="50" relative="1" as="geometry">
            <mxPoint x="620" y="590" as="sourcePoint" />
            <mxPoint x="650" y="450" as="targetPoint" />
          </mxGeometry>
        </mxCell>
        <mxCell id="4YayEk9W3RWL9oU9dBPd-60" value="" style="endArrow=none;dashed=1;html=1;dashPattern=1 3;strokeWidth=2;rounded=0;entryX=0.325;entryY=1.083;entryDx=0;entryDy=0;entryPerimeter=0;" edge="1" parent="1" target="4YayEk9W3RWL9oU9dBPd-48">
          <mxGeometry width="50" height="50" relative="1" as="geometry">
            <mxPoint x="340" y="380" as="sourcePoint" />
            <mxPoint x="370" y="250" as="targetPoint" />
          </mxGeometry>
        </mxCell>
        <mxCell id="4YayEk9W3RWL9oU9dBPd-61" value="IDL-bdm.counterparty_contact" style="shape=mxgraph.bpmn.data;labelPosition=center;verticalLabelPosition=bottom;align=center;verticalAlign=top;size=15;html=1;" vertex="1" parent="1">
          <mxGeometry x="970" y="600" width="40" height="60" as="geometry" />
        </mxCell>
        <mxCell id="4YayEk9W3RWL9oU9dBPd-62" value="IDL-bdm.counterparty_individual" style="shape=mxgraph.bpmn.data;labelPosition=center;verticalLabelPosition=bottom;align=center;verticalAlign=top;size=15;html=1;" vertex="1" parent="1">
          <mxGeometry x="970" y="700" width="40" height="60" as="geometry" />
        </mxCell>
        <mxCell id="4YayEk9W3RWL9oU9dBPd-63" value="IDL-bdm.counterparty" style="shape=mxgraph.bpmn.data;labelPosition=center;verticalLabelPosition=bottom;align=center;verticalAlign=top;size=15;html=1;" vertex="1" parent="1">
          <mxGeometry x="970" y="800" width="40" height="60" as="geometry" />
        </mxCell>
        <object placeholders="1" c4Name="IDL -&gt; BDM" c4Type="ContainerScopeBoundary" c4Application="IDL -&gt; BDM" label="&lt;font style=&quot;font-size: 16px&quot;&gt;&lt;b&gt;&lt;div style=&quot;text-align: left&quot;&gt;%c4Name%&lt;/div&gt;&lt;/b&gt;&lt;/font&gt;&lt;div style=&quot;text-align: left&quot;&gt;[%c4Application%]&lt;/div&gt;" id="4YayEk9W3RWL9oU9dBPd-64">
          <mxCell style="rounded=1;fontSize=11;whiteSpace=wrap;html=1;dashed=1;arcSize=20;fillColor=none;strokeColor=#666666;fontColor=#333333;labelBackgroundColor=none;align=left;verticalAlign=bottom;labelBorderColor=none;spacingTop=0;spacing=10;dashPattern=8 4;metaEdit=1;rotatable=0;perimeter=rectanglePerimeter;noLabel=0;labelPadding=0;allowArrows=0;connectable=0;expand=0;recursiveResize=0;editable=1;pointerEvents=0;absoluteArcSize=1;points=[[0.25,0,0],[0.5,0,0],[0.75,0,0],[1,0.25,0],[1,0.5,0],[1,0.75,0],[0.75,1,0],[0.5,1,0],[0.25,1,0],[0,0.75,0],[0,0.5,0],[0,0.25,0]];" vertex="1" parent="1">
            <mxGeometry x="870" y="590" width="260" height="350" as="geometry" />
          </mxCell>
        </object>
        <mxCell id="4YayEk9W3RWL9oU9dBPd-65" value="" style="endArrow=none;dashed=1;html=1;dashPattern=1 3;strokeWidth=2;rounded=0;" edge="1" parent="1">
          <mxGeometry width="50" height="50" relative="1" as="geometry">
            <mxPoint x="940" y="590" as="sourcePoint" />
            <mxPoint x="970" y="450" as="targetPoint" />
          </mxGeometry>
        </mxCell>
        <mxCell id="4YayEk9W3RWL9oU9dBPd-66" value="ЛМД_bdm_вовлеченная_сторона_12.5&lt;br&gt;" style="shape=mxgraph.bpmn.data;labelPosition=center;verticalLabelPosition=bottom;align=center;verticalAlign=top;size=15;html=1;" vertex="1" parent="1">
          <mxGeometry x="1060" y="195" width="40" height="60" as="geometry" />
        </mxCell>
        <mxCell id="4YayEk9W3RWL9oU9dBPd-67" value="" style="endArrow=none;dashed=1;html=1;dashPattern=1 3;strokeWidth=2;rounded=0;exitX=0.489;exitY=0.004;exitDx=0;exitDy=0;exitPerimeter=0;" edge="1" parent="1" source="4YayEk9W3RWL9oU9dBPd-4" target="4YayEk9W3RWL9oU9dBPd-66">
          <mxGeometry width="50" height="50" relative="1" as="geometry">
            <mxPoint x="1060" y="365" as="sourcePoint" />
            <mxPoint x="1063" y="290" as="targetPoint" />
          </mxGeometry>
        </mxCell>
        <mxCell id="4YayEk9W3RWL9oU9dBPd-68" value="Логическая модель данных слоя BDM" style="text;html=1;strokeColor=none;fillColor=none;align=center;verticalAlign=middle;whiteSpace=wrap;rounded=0;" vertex="1" parent="1">
          <mxGeometry x="1010" y="150" width="130" height="50" as="geometry" />
        </mxCell>
        <mxCell id="4YayEk9W3RWL9oU9dBPd-69" value="DP-7983" style="shape=mxgraph.bpmn.data;labelPosition=center;verticalLabelPosition=bottom;align=center;verticalAlign=top;size=15;html=1;" vertex="1" parent="1">
          <mxGeometry x="1190" y="620" width="40" height="60" as="geometry" />
        </mxCell>
        <mxCell id="4YayEk9W3RWL9oU9dBPd-70" value="" style="endArrow=none;dashed=1;html=1;dashPattern=1 3;strokeWidth=2;rounded=0;exitX=0.15;exitY=-0.008;exitDx=0;exitDy=0;exitPerimeter=0;entryX=0.532;entryY=1.01;entryDx=0;entryDy=0;entryPerimeter=0;" edge="1" parent="1" source="4YayEk9W3RWL9oU9dBPd-69" target="4YayEk9W3RWL9oU9dBPd-4">
          <mxGeometry width="50" height="50" relative="1" as="geometry">
            <mxPoint x="950" y="600" as="sourcePoint" />
            <mxPoint x="980" y="470" as="targetPoint" />
          </mxGeometry>
        </mxCell>
        <mxCell id="4YayEk9W3RWL9oU9dBPd-71" value="Ожидается, что эти атрибуты найдут свое отображение в BDM" style="text;html=1;strokeColor=none;fillColor=none;align=center;verticalAlign=middle;whiteSpace=wrap;rounded=0;" vertex="1" parent="1">
          <mxGeometry x="1145" y="700" width="130" height="50" as="geometry" />
        </mxCell>
      </root>
    </mxGraphModel>
  </diagram>
</mxfile>
